<?xml version="1.0" standalone="no"?>
<svg version="1.0" xmlns="http://www.w3.org/2000/svg"
     width="100.000000pt" height="100.000000pt" viewBox="0 0 1635.000000 1920.000000"
     preserveAspectRatio="xMidYMid meet">

    <g transform="translate(0.000000,1920.000000) scale(0.100000,-0.100000)"
       fill="#000000" stroke="none">
        <path d="M8002 19048 c-427 -595 -925 -1108 -1482 -1525 -167 -124 -482 -343
-496 -343 -3 0 -20 -10 -37 -22 -28 -20 -66 -42 -142 -83 -16 -8 -43 -24 -60
-35 -131 -84 -712 -366 -794 -385 -9 -3 -81 -27 -161 -55 -282 -100 -602 -171
-920 -205 -190 -21 -646 -16 -830 9 -299 40 -507 88 -795 184 -110 36 -202 66
-205 67 -3 0 -11 4 -17 8 -7 5 -21 10 -31 12 -65 12 -348 148 -552 265 -499
285 -895 602 -1278 1023 -180 198 -175 199 -184 -38 -4 -99 -8 -2500 -10
-5335 -3 -4998 -2 -5156 16 -5203 20 -53 40 -72 1356 -1276 333 -305 665 -612
739 -683 74 -71 151 -141 170 -156 40 -29 115 -98 200 -183 31 -31 211 -198
401 -371 190 -172 548 -498 795 -723 799 -728 2035 -1850 2798 -2538 108 -99
197 -183 197 -188 0 -5 6 -9 13 -9 6 0 31 -21 55 -45 24 -25 46 -45 49 -45 6
0 196 -173 268 -244 28 -28 114 -106 190 -174 77 -68 160 -142 185 -166 54
-51 189 -173 453 -409 258 -231 221 -229 457 -25 175 151 1016 889 1035 907 6
6 69 61 140 122 72 61 166 146 210 189 122 117 332 300 344 300 6 0 11 4 11 9
0 4 98 96 217 202 598 535 846 757 1268 1138 706 638 2209 2005 2305 2096 30
29 80 75 110 102 137 123 192 174 290 269 58 56 189 178 291 271 102 92 436
398 743 678 307 281 620 559 695 618 184 147 298 251 320 295 18 36 18 202 17
5387 -1 2943 -5 5356 -9 5363 -5 6 -20 12 -34 12 -20 0 -43 -19 -97 -77 -144
-158 -455 -462 -566 -554 -249 -207 -444 -343 -765 -532 -195 -115 -531 -279
-572 -279 -4 0 -17 -5 -28 -11 -11 -6 -24 -12 -30 -13 -5 -2 -89 -31 -185 -64
-631 -222 -1256 -278 -1870 -169 -199 35 -518 118 -715 185 -104 36 -201 67
-214 70 -13 3 -34 10 -45 16 -12 7 -26 13 -32 14 -6 1 -76 30 -155 64 -532
230 -1092 590 -1574 1011 -168 146 -498 477 -649 649 -144 164 -398 482 -523
653 -92 126 -93 127 -132 127 l-40 0 -109 -152z m1158 -2738 c184 -6 486 -17
670 -26 184 -8 394 -18 465 -21 72 -3 161 -5 198 -4 38 1 72 -1 77 -4 4 -3 59
-7 121 -10 210 -9 820 -64 1379 -126 371 -40 521 -58 1775 -214 424 -53 797
-98 830 -100 33 -2 62 -5 65 -6 3 -1 21 -3 40 -4 19 -1 37 -3 40 -4 3 -1 40
-4 82 -6 91 -6 122 -16 143 -48 14 -21 15 -367 13 -3493 l-3 -3469 -21 -40
c-15 -29 -94 -102 -297 -271 -482 -402 -895 -758 -1011 -870 -12 -11 -29 -25
-38 -30 -20 -11 -139 -115 -197 -171 -24 -24 -48 -43 -52 -43 -5 0 -9 -4 -9
-8 0 -5 -75 -76 -167 -158 -186 -165 -300 -269 -1173 -1060 -508 -460 -1482
-1340 -2118 -1912 -160 -145 -292 -268 -292 -273 0 -5 -5 -9 -11 -9 -10 0
-374 -323 -381 -338 -4 -10 -182 -169 -241 -216 -26 -21 -73 -63 -105 -94 -31
-32 -116 -111 -187 -176 -72 -66 -239 -224 -372 -353 -133 -128 -246 -233
-251 -233 -11 0 -87 66 -151 131 -25 26 -332 305 -681 619 -349 315 -765 691
-925 835 -268 243 -1828 1651 -2275 2054 -107 97 -220 201 -251 231 -97 95
-240 225 -250 228 -10 4 -79 67 -159 146 -25 24 -304 277 -620 562 -316 285
-667 602 -780 704 -113 101 -299 270 -415 373 -115 104 -225 206 -243 226 -45
48 -77 114 -90 181 -8 39 -7 1067 1 3445 11 2967 14 3394 27 3420 8 16 30 39
48 51 29 20 126 43 207 49 17 2 38 6 47 10 10 4 25 5 33 2 8 -4 17 -2 20 3 3
5 22 9 43 8 20 0 75 7 122 16 389 72 1479 221 2160 295 513 56 1538 144 1635
141 22 -1 42 -1 45 0 3 2 46 4 95 5 50 1 288 12 530 24 242 12 566 25 720 30
415 12 1751 12 2135 1z"/>
        <path d="M7485 15463 c-821 -11 -1874 -67 -2779 -149 -154 -14 -285 -23 -292
-20 -7 3 -15 2 -18 -2 -2 -4 -26 -7 -53 -6 -26 0 -51 -1 -55 -3 -5 -2 -41 -6
-80 -8 -67 -4 -344 -32 -843 -85 -457 -48 -1241 -143 -1251 -151 -14 -12 -27
-5297 -13 -5562 5 -100 14 -198 20 -217 23 -70 -12 -37 804 -775 237 -214 552
-500 701 -635 327 -296 748 -678 1264 -1145 212 -191 406 -369 432 -394 86
-85 137 -131 145 -131 4 0 60 -50 123 -111 125 -121 204 -192 1155 -1053 352
-319 735 -666 850 -771 529 -481 522 -475 559 -475 31 0 146 101 1302 1146
698 630 1286 1163 1307 1185 21 21 40 39 43 39 10 0 283 252 288 266 3 8 12
14 21 14 8 0 15 4 15 9 0 5 66 69 148 141 81 72 152 135 157 141 15 14 2278
2062 2556 2313 159 143 191 180 208 241 15 55 16 5311 1 5523 -13 179 -22 209
-63 227 -62 27 -1181 170 -1957 250 -36 4 -94 9 -130 11 -36 2 -67 4 -70 5 -3
1 -25 3 -50 4 -25 1 -47 3 -50 4 -3 1 -36 4 -75 6 -38 2 -205 15 -370 29
-1298 111 -2619 157 -3950 139z"/>
    </g>
</svg>
