<?xml version="1.0" standalone="no"?>
<!DOCTYPE svg PUBLIC "-//W3C//DTD SVG 20010904//EN"
 "http://www.w3.org/TR/2001/REC-SVG-20010904/DTD/svg10.dtd">
<svg version="1.0" xmlns="http://www.w3.org/2000/svg"
 width="512.000000pt" height="512.000000pt" viewBox="0 0 512.000000 512.000000"
 preserveAspectRatio="xMidYMid meet">

<g transform="translate(0.000000,512.000000) scale(0.100000,-0.100000)"
fill="#000000" stroke="none">
<path d="M1463 4841 c-199 -48 -369 -94 -379 -102 -10 -8 -257 -227 -549 -488
-291 -261 -531 -476 -533 -477 -6 -3 541 -844 549 -844 4 0 128 56 275 125
147 69 268 125 270 125 2 0 4 -673 4 -1495 l0 -1495 1460 0 1460 0 0 1495 c0
822 2 1495 4 1495 2 0 124 -56 271 -125 147 -69 271 -125 275 -125 7 0 553
841 548 845 -2 1 -242 216 -534 477 -291 261 -541 482 -555 491 -17 11 -724
187 -752 187 -2 0 -25 -27 -50 -59 -58 -75 -159 -159 -246 -205 -366 -192
-839 -105 -1084 199 -26 33 -53 61 -60 62 -6 1 -175 -38 -374 -86z"/>
</g>
</svg>
